# xmcd
# 
# Track frame offsets:
#     151
#     47296
#     92262
#     119633
#     187185
#     219802
# 
# Disc length: 3352
# 
# Revision: 0
# Processed by: cddbd v1.5.2PL0 Copyright (c) Steve Scherf et al.
# Submitted via: fre:ac v1.0.17
# 
DISCID=470d1606
DTITLE=Charles Ives - A Symphony-New England Holidays - The Unanswered Question
DYEAR=0
DGENRE=
TTITLE0=A Symphony: New England Holidays - Washington's Birthday-Winter
TTITLE1=A Symphony: New England Holidays - Decoration Day - Spring 
TTITLE2=A Symphony: New England Holidays - The Fourth Of July - Summer
TTITLE3=A Symphony: New England Holidays - Thanksgiving and Forefather's Day - Autumn
TTITLE4=The Unanswered Question (Revised Version)
TTITLE5=The Unanswered Question (Original Version)
EXTD=
EXTT0=
EXTT1=
EXTT2=
EXTT3=
EXTT4=
EXTT5=
PLAYORDER=
